---
permalink: /img/gw_circle.svg
---
<?xml version="1.0" encoding="utf-8"?>
<!-- Generator: Adobe Illustrator 21.1.0, SVG Export Plug-In . SVG Version: 6.00 Build 0)  -->
<svg version="1.1" id="Layer_1" xmlns="http://www.w3.org/2000/svg" xmlns:xlink="http://www.w3.org/1999/xlink" x="0px" y="0px"
	 viewBox="0 0 192 192" style="enable-background:new 0 0 192 192;" xml:space="preserve">
<style type="text/css">
	.st0{fill:#{{ site.color.third }};}
	.st1{clip-path:url(#SVGID_2_);fill:#{{ site.color.primary }};}
	.st2{clip-path:url(#SVGID_2_);fill:#FFFFFF;}
</style>
<g>
	<circle class="st0" cx="96" cy="96" r="96"/>
	<g>
		<defs>
			<rect id="SVGID_1_" x="19.7" y="56.5" width="154.7" height="90.2"/>
		</defs>
		<clipPath id="SVGID_2_">
			<use xlink:href="#SVGID_1_"  style="overflow:visible;"/>
		</clipPath>
		<path class="st1" d="M47.9,91C38.5,91,33,87.1,33,78.6c0-7.6,5.4-12.8,14.2-12.8c9.1,0,14.6,4.4,14.6,12.4
			C61.8,86,56.8,91,47.9,91 M41,118.5l14.7,2.3c7,1,10.5,2.5,10.5,6.7c0,7.5-9.3,9.9-17.7,9.9c-9.6,0-16.8-2.2-16.8-9
			C31.6,123.9,35.2,121,41,118.5 M74.5,57.8H57.4c-2.4-0.6-6.4-1.3-10.2-1.3C30.5,56.5,21,66.1,21,78.9c0,12.6,8.3,17.5,14.9,19.3
			v0.2c-5,0.8-11.2,3.5-11.2,9.6c0,5.3,4.2,7.8,8.6,8.7v0.2c-7.3,1-13.7,6-13.7,14c0,9.6,11.6,15.7,27.5,15.7
			c15.3,0,30.9-5.4,30.9-21.4c0-9.9-7.2-13-15.5-14.2l-15.3-2.2c-7-1-9.9-1.5-9.9-4.2c0-2.3,3.3-4.4,6.4-4.4h4.7
			c12.6,0,23.8-8.4,23.8-21c0-6.3-2.4-9.9-4.2-12.1h6.4V57.8z"/>
		<path class="st2" d="M132.5,117.8h14.3L168,67.3h6.4v-9.5h-28.1v9.5h8.8c0,0-13.5,36.4-14.2,39h-0.2c-0.7-2.7-13.8-39-13.8-39h7.5
			v-9.5h-28.1v9.5h7l3,8c0,0-12,28.2-13,31.1h-0.2c-0.8-2.9-14.3-39-14.3-39H96v-9.5H74.5v9.5l21.1,50.6h13.6l12.5-30
			C122.3,90,132.5,117.8,132.5,117.8"/>
	</g>
</g>
</svg>
