---
permalink: /img/gw_dark.svg
---
<?xml version="1.0" encoding="utf-8"?>
<!-- Generator: Adobe Illustrator 21.1.0, SVG Export Plug-In . SVG Version: 6.00 Build 0)  -->
<svg version="1.1" id="Layer_1" xmlns="http://www.w3.org/2000/svg" xmlns:xlink="http://www.w3.org/1999/xlink" x="0px" y="0px"
	 viewBox="0 0 900 650" style="enable-background:new 0 0 900 650;" xml:space="preserve">
<style type="text/css">
	.st0{fill:#{{ site.color.primary }};}
	.st1{fill:#{{ site.color.third }};}
	.st2{clip-path:url(#SVGID_2_);fill:#{{ site.color.primary }};}
	.st3{clip-path:url(#SVGID_2_);fill:#FFFFFF;}
	.st4{opacity:0.5;fill:#{{ site.color.third }};}
</style>
<rect class="st0" width="900" height="650"/>
<circle class="st1" cx="450" cy="325" r="276"/>
<g>
	<defs>
		<rect id="SVGID_1_" x="230.6" y="211.3" width="444.9" height="259.4"/>
	</defs>
	<clipPath id="SVGID_2_">
		<use xlink:href="#SVGID_1_"  style="overflow:visible;"/>
	</clipPath>
	<path class="st2" d="M311.7,310.5c-26.9,0-42.8-11.1-42.8-35.6c0-21.9,15.6-36.9,40.9-36.9c26.3,0,41.8,12.7,41.8,35.6
		C351.6,296.1,337.3,310.5,311.7,310.5 M291.9,389.8l42.2,6.5c20.1,2.9,30.2,7.2,30.2,19.2c0,21.5-26.6,28.4-50.9,28.4
		c-27.6,0-48.3-6.2-48.3-25.8C265,405.1,275.3,396.9,291.9,389.8 M388.2,215.1h-49.1c-6.9-1.6-18.3-3.8-29.4-3.8
		c-48,0-75.3,27.7-75.3,64.6c0,36.2,24,50.2,42.8,55.5v0.6c-14.3,2.3-32.1,10.1-32.1,27.7c0,15.3,12,22.5,24.7,25.1v0.7
		c-21.1,2.9-39.2,17.3-39.2,40.1c0,27.7,33.4,45,79.1,45c44.1,0,88.9-15.7,88.9-61.7c0-28.4-20.8-37.5-44.4-40.8L310,362
		c-20.1-2.9-28.5-4.2-28.5-12.1c0-6.5,9.4-12.7,18.5-12.7h13.6c36.3,0,68.4-24.1,68.4-60.4c0-18.1-6.8-28.4-12.2-34.8h18.3V215.1z"
		/>
	<path class="st3" d="M554.8,387.8H596l61-145.4h18.5v-27.2h-80.9v27.2H620c0,0-38.7,104.6-40.8,112.2h-0.7
		c-2.1-7.6-39.7-112.2-39.7-112.2h21.6v-27.2h-80.9v27.2h20.2l8.7,22.9c0,0-34.5,81-37.3,89.3h-0.7c-2.4-8.3-41.1-112.2-41.1-112.2
		h20.6v-27.2h-61.7v27.2l60.6,145.4h39l35.9-86.3C525.6,307.8,554.8,387.8,554.8,387.8"/>
</g>
<circle class="st4" cx="450" cy="325" r="276"/>
</svg>
