---
permalink: /img/gw_gc2015.svg
---
<?xml version="1.0" encoding="utf-8"?>
<!-- Generator: Adobe Illustrator 21.1.0, SVG Export Plug-In . SVG Version: 6.00 Build 0)  -->
<svg version="1.1" id="Layer_1" xmlns="http://www.w3.org/2000/svg" xmlns:xlink="http://www.w3.org/1999/xlink" x="0px" y="0px"
	 viewBox="0 0 181.9 152" style="enable-background:new 0 0 181.9 152;" xml:space="preserve">
<style type="text/css">
	.st0{fill:#E88A24;}
</style>
<g>
	<g>
		<path d="M127.6,120.6h14.2l21.1-52.8h6.4v-9.9h-28v9.9h8.8c0,0-13.4,38-14.1,40.7h-0.2C135,105.7,122,67.8,122,67.8h7.5v-9.9h-28
			v9.9h7l3,8.3c0,0-11.9,29.4-12.9,32.4h-0.2c-0.8-3-14.2-40.7-14.2-40.7h7.1v-9.9h-28v9.9H70l21,52.8h13.5l12.4-31.3
			C117.4,91.5,127.6,120.6,127.6,120.6"/>
		<path class="st0" d="M42.1,92.5c-9.8,0-15.6-4-15.6-12.9c0-7.9,5.7-13.4,14.9-13.4c9.6,0,15.2,4.6,15.2,12.9
			C56.7,87.3,51.5,92.5,42.1,92.5 M34.9,121.2l15.4,2.4c7.3,1.1,11,2.6,11,7c0,7.8-9.7,10.3-18.6,10.3c-10,0-17.6-2.2-17.6-9.3
			C25.1,126.7,28.9,123.8,34.9,121.2 M70,57.9H52.1c-2.5-0.6-6.7-1.4-10.7-1.4c-17.5,0-27.4,10-27.4,23.4c0,13.1,8.7,18.2,15.6,20.1
			v0.2c-5.2,0.8-11.7,3.7-11.7,10c0,5.6,4.4,8.2,9,9.1v0.2c-7.7,1.1-14.3,6.3-14.3,14.5c0,10,12.2,16.3,28.8,16.3
			c16.1,0,32.4-5.7,32.4-22.3c0-10.3-7.6-13.6-16.2-14.8l-16.1-2.2c-7.3-1.1-10.4-1.5-10.4-4.4c0-2.4,3.4-4.6,6.7-4.6h5
			c13.2,0,24.9-8.7,24.9-21.9c0-6.6-2.5-10.3-4.4-12.6H70V57.9z"/>
	</g>
	<g>
		<g>
			<g>
				<path d="M175.3,42.7c-0.6,2.7-3,4.4-5.7,3.8c-2.7-0.6-4.3-3-3.7-5.8c0.6-2.8,3-4.4,5.7-3.8C174.4,37.5,175.9,39.9,175.3,42.7
					 M178.1,43.3c0.9-4.2-1.7-7.9-6-8.8c-4.3-0.9-8.1,1.5-9,5.7c-0.9,4.2,1.7,7.9,5.9,8.8C173.4,49.8,177.2,47.5,178.1,43.3
					 M157.2,46.4l2.4-14.1l-2.7-0.5l-2.4,14.1L157.2,46.4z M149,45l1.9-14l-2.7-0.4l-1.2,8.9l-6.9-10l-1.6-0.2l-1.9,14l2.7,0.4
					l1.2-8.9l6.9,10L149,45z M129.8,35.6c-0.2,2.8-2.4,4.7-5.2,4.5c-2.8-0.2-4.6-2.5-4.4-5.3c0.2-2.8,2.5-4.7,5.2-4.5
					C128.2,30.5,130.1,32.8,129.8,35.6 M132.6,35.8c0.4-4.3-2.6-7.7-7-8c-4.4-0.4-7.8,2.5-8.2,6.8c-0.4,4.3,2.6,7.6,7,8
					C128.8,42.9,132.3,40.1,132.6,35.8 M116.2,29.9l0.1-2.5l-14.3-0.7l-0.1,2.5l5.8,0.3l-0.5,11.7l2.7,0.1l0.5-11.7L116.2,29.9z
					 M99.2,40.8l0.1-14.1l-2.7,0l-0.1,9l-8.1-9.1l-1.6,0l-0.1,14.1l2.7,0l0.1-9l8.1,9.1L99.2,40.8z M77.1,34.9l-4.4,0.1l2.1-4.3
					L77.1,34.9z M83.4,40.8l-7.7-13.9l-2.1,0.1l-6.8,14.3l3-0.1l1.7-3.6l6.9-0.2l2,3.5L83.4,40.8z M51.3,42.5l-1.5-14.1l-2.7,0.3
					l1,9L39,29.6l-1.6,0.2l1.5,14.1l2.7-0.3l-1-9l9.1,8.1L51.3,42.5z M28.6,39.3l-4.4,0.7l1.5-4.5L28.6,39.3z M35.6,44.3l-9.3-12.9
					l-2.1,0.3l-5,15.1l2.9-0.4l1.3-3.8l6.8-1l2.4,3.2L35.6,44.3z M16.4,43c-0.5-2.2-2.6-3.6-5.8-3.3C8.3,40,6.5,40.6,5.2,40
					c-0.3-0.2-0.5-0.4-0.6-0.7c-0.2-0.9,0.9-1.8,2.7-2.2c1.8-0.4,3.7-0.1,6,1l1.1-2.5c-2.8-1.2-5.3-1.5-7.6-1
					c-3.5,0.7-5.3,3-4.9,5.2c0.3,1.3,1.3,2.3,2.8,2.6c1.6,0.4,3.5,0,5.9-0.3c1.8-0.2,2.9,0.3,3.1,1.3c0.3,1.3-1,2.5-3.2,3
					c-1.9,0.4-4,0.1-6.6-1.2l-1.1,2.5c2.9,1.4,5.4,1.7,8.2,1.1C15.1,48.1,16.9,45.5,16.4,43"/>
			</g>
			<g>
				<path d="M13,39c-2.1-1-3.8-1.3-5.5-0.9c-1.4,0.3-2.1,0.9-2,1.1c0,0,0,0,0.2,0.1c0.4,0.2,1.1,0.2,2.1,0c0.4-0.2,0.8-0.3,1.3-0.4
					c1-0.2,2-0.2,3.1,0C12.5,39,12.8,39,13,39L13,39z"/>
			</g>
			<g>
				<path d="M18.3,44.8c-0.1-0.6-0.4-1.2-0.8-1.7c0.2,1.4-0.2,2.9-1.2,4.1c-1.1,1.3-2.8,2.2-4.9,2.7c-1,0.2-1.9,0.3-2.8,0.3
					c-1.3,0-2.5-0.2-3.8-0.6l0,0.1c2.9,1.4,5.4,1.7,8.2,1.1C16.9,49.9,18.8,47.3,18.3,44.8"/>
			</g>
			<g>
				<path d="M13.9,39.3c0.5,0.1,0.9,0.3,1.3,0.6l1-2.3c-0.4-0.2-0.9-0.3-1.3-0.5L13.9,39.3z"/>
			</g>
			<g>
				<polygon points="30,42.6 24.2,43.4 22.9,47.2 21.4,47.4 21,48.6 24,48.2 25.2,44.4 30.7,43.5 				"/>
			</g>
			<g>
				<polygon points="33.7,45.6 34.4,46.6 37.4,46.1 36.7,45.1 				"/>
			</g>
			<g>
				<polygon points="41.8,36.8 42.6,44.4 40.6,44.6 40.7,45.7 43.4,45.4 42.6,37.4 				"/>
			</g>
			<g>
				<path d="M167.7,42.5c0.6-2.8,3-4.4,5.6-3.9c-0.5-0.4-1.1-0.7-1.8-0.9c-0.3-0.1-0.6-0.1-0.9-0.1c-1.9,0-3.4,1.3-3.8,3.3
					c-0.3,1.3,0.1,2.6,0.8,3.4C167.5,43.8,167.6,43.2,167.7,42.5"/>
			</g>
			<g>
				<path d="M125.1,31.2c-2.1,0-3.7,1.5-3.9,3.7c-0.1,1.1,0.2,2.2,0.9,3c0,0,0,0,0,0c-0.1-0.4-0.1-0.9-0.1-1.4
					c0.2-2.8,2.5-4.7,5.2-4.5c0.2,0,0.3,0,0.5,0.1c-0.6-0.5-1.4-0.8-2.3-0.9C125.4,31.2,125.2,31.2,125.1,31.2"/>
			</g>
			<g>
				<path d="M12.4,44.1c0.2,0,0.4,0,0.5,0c0-0.1,0-0.1,0-0.2c-0.1-0.6-1.1-0.6-1.5-0.6c-0.2,0-0.4,0-0.7,0l-1,0.1
					c-1.3,0.2-2.4,0.3-3.4,0.3c-0.6,0-1.1-0.1-1.6-0.2c0.5,0.4,1.1,0.7,1.8,0.9C8.1,44.8,10,44.4,12.4,44.1"/>
			</g>
			<g>
				<polygon points="74.2,34.3 75.8,34.2 75.8,34.2 74.9,32.7 				"/>
			</g>
			<g>
				<polygon points="25.7,39 27.1,38.7 27.2,38.6 26.2,37.3 				"/>
			</g>
			<g>
				<polygon points="51,30.3 52.4,43.4 50.5,43.6 51.5,44.5 53.1,44.3 51.6,30.3 				"/>
			</g>
			<g>
				<polygon points="149.8,46 148.7,45.9 149.2,46.5 150.8,46.7 152.7,32.7 151.6,32.6 				"/>
			</g>
			<g>
				<polygon points="141.1,37.1 140.1,44.7 138.4,44.5 138.4,45.1 141.1,45.4 142,38.4 				"/>
			</g>
			<g>
				<polygon points="158,47.4 156.4,47.2 156.3,47.7 159,48.2 161.4,34.1 160.3,33.9 				"/>
			</g>
			<g>
				<path d="M178.9,39.5c0.4,1.3,0.4,2.7,0.1,4c-0.8,3.9-4,6.5-8,6.5c-0.6,0-1.3-0.1-2-0.2c-0.3-0.1-0.6-0.1-0.9-0.2
					c0.8,0.5,1.7,0.9,2.8,1.1c4.3,0.9,8.1-1.5,9-5.7C180.3,43,179.9,41,178.9,39.5"/>
			</g>
			<g>
				<path d="M133.6,36c-0.4,4.4-3.8,7.5-8.3,7.5h0c-0.3,0-0.6,0-0.8,0c-0.7-0.1-1.3-0.2-1.9-0.4c1.1,0.7,2.3,1.1,3.7,1.2
					c4.4,0.4,7.9-2.4,8.2-6.7c0.1-1.8-0.3-3.4-1.1-4.7C133.6,33.9,133.7,34.9,133.6,36"/>
			</g>
			<g>
				<polygon points="90.4,34 90.4,41.7 88.5,41.7 88.5,42.5 91.2,42.5 91.3,35 				"/>
			</g>
			<g>
				<polygon points="81.7,41.8 82.2,42.7 85.2,42.6 84.7,41.7 				"/>
			</g>
			<g>
				<polygon points="78,38.3 72.2,38.5 70.5,42.1 69.1,42.1 68.6,43.1 71.6,43 73.3,39.4 78.5,39.2 				"/>
			</g>
			<g>
				<polygon points="100.2,41.8 98.7,41.8 99.4,42.6 101,42.6 101.1,28.5 100.3,28.5 				"/>
			</g>
			<g>
				<path d="M118.1,30.5l0.1-1.4l-0.9,0l-0.1,1.7l-5.8-0.3l-0.5,11.7l-1.8-0.1l0,0.8l2.7,0.1l0.5-11.7l5.2,0.2
					C117.7,31.2,117.9,30.9,118.1,30.5"/>
			</g>
			<g>
				
					<rect x="105" y="29.1" transform="matrix(4.602514e-02 -0.9989 0.9989 4.602514e-02 69.8892 134.5139)" width="0.8" height="3.1"/>
			</g>
		</g>
		<g>
			<g>
				<path d="M133.6,25.1h-1.3v-8.9h-16.9v-2.8l-6.1,0v-1.5l-2.1,0l-7-2.1l-2.4-1.3l1.7-1.7h-3.4l-0.1-0.5c0-0.1-1.2-3.5-5.8-3.5
					c-4.6,0-5.8,3.3-5.8,3.5l-0.1,0.4l-3.4,0l1.7,1.7l-2.5,1.4l-7.1,2h-1.9v1.5h-6.1v2.8H47.9v8.9h-1.3V14.9h16.9V12h6.1v-1.5h3.1
					l6.7-2l0.8-0.5l-2.7-2.7h5.7c0.6-1.1,2.4-3.9,6.9-3.9c4.5,0,6.3,2.8,6.9,3.9h5.7L100,8.1l0.8,0.5l6.7,2h3.1V12l6.1,0v2.8h16.9
					V25.1z"/>
			</g>
			<g>
				<g>
					<rect x="87.4" y="9.1" width="5.3" height="6.1"/>
				</g>
				<g>
					<path d="M79.4,14.4c0,0-1.2-1.1-2.6-1.1c-1.4,0-2.6,1.1-2.6,1.1v4.3h5.3V14.4z"/>
				</g>
				<g>
					<path d="M105.6,14.4c0,0-1.2-1.1-2.6-1.1c-1.4,0-2.6,1.1-2.6,1.1v4.3h5.3V14.4z"/>
				</g>
			</g>
			<g>
				<g>
					<path d="M149.8,27.6c0,0-0.1,0-0.1,0c-19-3.2-39-4.8-59.6-4.8c-20.6,0-40.7,1.6-59.6,4.8c-0.3,0.1-0.7-0.2-0.8-0.5
						c-0.1-0.4,0.2-0.7,0.5-0.8c19-3.2,39.2-4.8,59.8-4.8c20.7,0,40.8,1.6,59.8,4.8c0.4,0.1,0.6,0.4,0.5,0.8
						C150.4,27.3,150.2,27.6,149.8,27.6z"/>
				</g>
				<g>
					<path d="M30.4,27.6c-0.3,0-0.6-0.2-0.6-0.5c-0.1-0.4,0.2-0.7,0.5-0.8c2.1-0.4,4.1-0.7,6.1-1c15.4-2.7,28.8-5,53.7-5
						c25,0,38.2,2.3,53.4,4.9c2.1,0.4,4.2,0.7,6.4,1.1c0.4,0.1,0.6,0.4,0.5,0.8c-0.1,0.4-0.4,0.6-0.8,0.5c-2.2-0.4-4.3-0.7-6.4-1.1
						c-15.2-2.6-28.3-4.9-53.2-4.9c-24.8,0-38.1,2.3-53.5,4.9c-2,0.3-4,0.7-6.1,1C30.5,27.5,30.4,27.6,30.4,27.6z"/>
				</g>
			</g>
		</g>
	</g>
</g>
</svg>
