<?xml version="1.0" standalone="no"?>
<!DOCTYPE svg PUBLIC "-//W3C//DTD SVG 20010904//EN"
 "http://www.w3.org/TR/2001/REC-SVG-20010904/DTD/svg10.dtd">
<svg version="1.0" xmlns="http://www.w3.org/2000/svg"
 width="301.000000pt" height="301.000000pt" viewBox="0 0 301.000000 301.000000"
 preserveAspectRatio="xMidYMid meet">
<metadata>
Created by potrace 1.11, written by Peter Selinger 2001-2013
</metadata>
<g transform="translate(0.000000,301.000000) scale(0.100000,-0.100000)"
fill="#000000" stroke="none">
<path d="M400 2341 c-142 -36 -237 -110 -292 -226 -32 -67 -33 -75 -33 -185 1
-106 3 -119 28 -168 15 -29 46 -70 67 -91 35 -34 117 -82 160 -94 8 -2 -8 -11
-35 -20 -103 -35 -155 -92 -155 -172 0 -73 48 -134 121 -152 l33 -9 -60 -22
c-121 -44 -187 -129 -188 -242 -1 -82 31 -141 104 -195 98 -72 229 -103 430
-103 253 0 452 85 523 223 48 93 55 221 17 301 -47 96 -134 131 -415 168 -103
14 -132 17 -160 22 -139 21 -176 43 -159 91 16 47 63 63 193 67 135 4 223 31
306 94 144 108 193 309 115 466 -17 33 -30 60 -30 61 0 1 24 1 53 1 l52 -1
199 -478 200 -478 130 3 129 3 52 125 c28 69 80 194 115 278 l63 154 101 -279
101 -278 136 -3 137 -3 46 113 c26 62 51 122 56 133 6 11 75 175 154 365 l145
345 60 0 61 0 0 90 0 91 -262 0 -263 0 -5 -46 c-3 -25 -4 -65 -2 -90 l4 -46
79 1 c43 0 79 -2 79 -4 0 -4 -87 -241 -227 -624 -20 -53 -37 -96 -39 -95 -4 5
-254 710 -254 718 0 4 26 6 58 5 31 -1 62 0 67 2 9 3 14 145 6 173 -2 9 -509
5 -518 -3 -9 -9 -12 -166 -3 -168 3 -1 32 -2 64 -3 l60 -1 29 -70 c28 -67 28
-72 15 -110 -24 -64 -220 -529 -227 -537 -4 -5 -136 343 -268 708 -3 8 15 11
57 9 48 -2 62 1 68 14 6 13 7 103 3 156 -1 7 -124 10 -353 10 -225 0 -378 4
-423 11 -98 17 -228 14 -305 -5z m293 -181 c94 -35 141 -105 140 -212 0 -101
-38 -165 -123 -209 -65 -34 -211 -34 -287 0 -87 39 -124 98 -124 200 -1 114
62 198 171 232 51 15 168 10 223 -11z m-103 -994 c52 -8 113 -18 135 -21 64
-9 138 -34 162 -54 46 -38 35 -130 -20 -177 -63 -53 -149 -75 -292 -75 -89 1
-101 2 -160 16 -120 30 -171 115 -126 209 30 60 131 128 181 120 14 -2 68 -10
120 -18z"/>
</g>
</svg>
